<svg width="1337" height="1024" viewBox="0 0 1337 1024" fill="none" xmlns="http://www.w3.org/2000/svg">
<path d="M986.5 420.5L690 20H783.5L1021.5 471.5L866.5 311L1219 880L1021.5 808L1219 987L922.5 754.5L1152 808C1029.17 613 783.5 220.3 783.5 209.5C783.5 198.7 918.833 345.667 986.5 420.5Z" fill="url(#paint0_linear_5_94)"/>
<path d="M1002.05 434.424L710.69 0H-63.5017L-7.23328 294.788L-75 132.5L-7.23328 933.584L-63.5017 668L-25.6416 1024H1275L940.477 773.083L1192.48 819.628L848.435 273.923L1002.05 434.424Z" fill="#1E202C" stroke="#1E202C"/>
<path d="M786.199 481.459C774.604 472.755 763.707 464.554 753.692 457C765.087 465.015 775.917 473.19 786.199 481.459C918.253 580.594 1140.82 745.116 1182.17 765.516C1167.4 761.449 1135.65 757.339 1126.89 773.432C1118.12 789.525 1220.31 947.4 1272.5 1024.33L998.253 756.776C1048.44 764.352 1129.15 765.219 1103.74 740.825C1078.33 716.43 994.069 706.704 948.455 700.798C944.267 670.858 897.124 570.666 786.199 481.459Z" fill="#A4FBF2"/>
<defs>
<linearGradient id="paint0_linear_5_94" x1="954.5" y1="20" x2="954.5" y2="987" gradientUnits="userSpaceOnUse">
<stop stop-color="#FCD92D"/>
<stop offset="1" stop-color="#FFCC33"/>
</linearGradient>
</defs>
</svg>
