<svg width="257" height="71" viewBox="0 0 257 71" fill="none" xmlns="http://www.w3.org/2000/svg">
<path d="M12.6914 59.8189L29.3488 0L0 71L257 69V3.91339L232.41 63.7323L12.6914 59.8189Z" fill="#181A26"/>
<path d="M257 1.11804H29.3488L3.17285 68.4588H257V1.11804Z" fill="#FCD92D"/>
<path d="M256.827 68.109V0.768311L229 58.3954L51.5 0.768311L22 58.3954L29.1759 0.768311L3 68.109H256.827Z" fill="#FFCC33"/>
<path d="M86.804 44.184C86.804 46.452 85.256 48 82.988 48H72.404V22.8H82.988C85.256 22.8 86.804 24.348 86.804 26.616V44.184ZM81.296 42.96C81.368 42.96 81.404 42.924 81.404 42.852V27.948C81.404 27.876 81.368 27.84 81.296 27.84H77.804V42.96H81.296ZM102.051 44.616C102.051 46.668 100.647 48.072 98.5946 48.072H93.0866C90.9626 48.072 89.6306 46.668 89.6306 44.616V34.464C89.6306 32.34 90.9626 31.008 93.0866 31.008H98.5946C100.647 31.008 102.051 32.412 102.051 34.464V44.616ZM97.1906 35.688C97.1906 35.616 97.1546 35.58 97.0826 35.58H94.5986C94.5266 35.58 94.4906 35.616 94.4906 35.688V43.392C94.4906 43.464 94.5266 43.5 94.5986 43.5H97.0826C97.1546 43.5 97.1906 43.464 97.1906 43.392V35.688ZM126.633 31.08L123.105 48H116.589L115.113 38.64L115.041 38.028L114.969 38.64L113.529 48H107.013L103.485 31.08H108.561L110.217 41.232L110.289 41.844L110.361 41.232L112.125 31.08H117.957L119.721 41.232L119.793 41.844L119.865 41.232L121.557 31.08H126.633ZM140.441 48H135.581V35.688C135.581 35.616 135.545 35.58 135.473 35.58H132.989C132.917 35.58 132.881 35.616 132.881 35.688V48H128.021V31.08H132.809V32.736H132.881C133.133 31.62 134.393 31.008 135.689 31.008H136.985C139.037 31.008 140.441 32.376 140.441 34.464V48ZM148.104 48H143.244V22.8H148.104V48ZM163.328 44.616C163.328 46.668 161.924 48.072 159.872 48.072H154.364C152.24 48.072 150.908 46.668 150.908 44.616V34.464C150.908 32.34 152.24 31.008 154.364 31.008H159.872C161.924 31.008 163.328 32.412 163.328 34.464V44.616ZM158.468 35.688C158.468 35.616 158.432 35.58 158.36 35.58H155.876C155.804 35.58 155.768 35.616 155.768 35.688V43.392C155.768 43.464 155.804 43.5 155.876 43.5H158.36C158.432 43.5 158.468 43.464 158.468 43.392V35.688ZM178.371 48H173.583V46.632H173.511C173.223 47.604 172.215 48.072 170.991 48.072H169.695C167.355 48.072 165.951 46.74 165.951 44.4V41.196C165.951 38.64 167.283 37.56 169.587 37.56H170.991C172.215 37.56 173.223 37.956 173.511 38.928H173.583L173.511 37.56V35.688C173.511 35.616 173.475 35.58 173.403 35.58H167.175V31.08H174.735C177.075 31.08 178.371 32.376 178.371 34.716V48ZM173.511 40.908C173.511 40.836 173.475 40.8 173.403 40.8H170.919C170.847 40.8 170.811 40.836 170.811 40.908V43.752C170.811 43.824 170.847 43.86 170.919 43.86H173.403C173.475 43.86 173.511 43.824 173.511 43.752V40.908ZM193.597 48H188.809V46.344H188.737C188.485 47.46 187.225 48.072 185.929 48.072H184.633C182.581 48.072 181.177 46.704 181.177 44.832V34.248C181.177 32.376 182.581 31.008 184.633 31.008H185.929C187.225 31.008 188.485 31.62 188.737 32.736H188.809L188.737 31.08V22.8H193.597V48ZM188.629 43.5C188.701 43.5 188.737 43.464 188.737 43.392V35.688C188.737 35.616 188.701 35.58 188.629 35.58H186.145C186.073 35.58 186.037 35.616 186.037 35.688V43.392C186.037 43.464 186.073 43.5 186.145 43.5H188.629Z" fill="black"/>
</svg>
